<svg id="Capa_1" enable-background="new 0 0 510.594 510.594" height="512" viewBox="0 0 510.594 510.594" width="512" xmlns="http://www.w3.org/2000/svg"><g><path d="m510.594 124.415c0-39.219-15.272-76.09-43.005-103.823l-4.69-4.69c-4.441-4.441-10.346-6.887-16.627-6.887s-12.186 2.446-16.626 6.887c-4.441 4.441-6.888 10.346-6.888 16.627s2.446 12.186 6.887 16.626c21.875 21.874 33.922 50.958 33.922 81.892v165.145c-18.688-13.545-41.645-21.544-66.439-21.544-15.307 0-30.161 2.999-44.148 8.912-3.815 1.613-5.601 6.013-3.988 9.829 1.614 3.816 6.017 5.599 9.828 3.988 12.13-5.128 25.019-7.728 38.309-7.728 54.294 0 98.466 44.171 98.466 98.465s-44.172 98.465-98.466 98.465c-50.672 0-92.521-38.477-97.879-87.746-.015-.287-.045-.575-.094-.865-.324-3.241-.491-6.528-.491-9.853 0-10.883 1.75-21.461 5.081-31.424.192-.422.338-.857.446-1.297 6.289-17.964 17.764-33.857 33.509-45.794 3.301-2.502 3.947-7.207 1.445-10.508-2.503-3.3-7.206-3.949-10.508-1.445-15.769 11.953-27.818 27.353-35.46 44.77-11.562-6.325-24.488-9.637-37.881-9.637-13.367 0-26.361 3.341-37.962 9.695-17.601-39.902-57.533-67.826-103.87-67.826-24.793 0-47.75 8-66.438 21.545v-165.147c0-30.935 12.047-60.018 33.921-81.892 4.442-4.441 6.888-10.346 6.888-16.627s-2.446-12.186-6.887-16.626c-4.441-4.441-10.346-6.887-16.627-6.887s-12.186 2.446-16.627 6.887l-4.69 4.69c-27.733 27.732-43.005 64.604-43.005 103.823v263.698c0 62.565 50.9 113.465 113.465 113.465 28.732 0 56.143-10.76 77.186-30.298 3.035-2.818 3.211-7.564.392-10.599-2.817-3.036-7.563-3.211-10.6-.393-18.259 16.954-42.046 26.29-66.979 26.29-54.293 0-98.464-44.171-98.464-98.465s44.171-98.465 98.465-98.465 98.465 44.171 98.465 98.465c0 19.783-5.841 38.859-16.893 55.166-2.323 3.429-1.428 8.092 2.001 10.416 3.431 2.323 8.093 1.428 10.417-2.001 10.593-15.631 17.017-33.467 18.888-52.137.116-.278.222-.563.306-.861 3.271-11.608 15.052-19.715 28.648-19.715 14.078 0 26.458 9.095 29.011 21.222 6.055 56.902 54.339 101.375 112.82 101.375 62.565 0 113.466-50.9 113.466-113.465 0-1.23 0-263.698 0-263.698zm-495.594 0c0-35.213 13.712-68.318 38.611-93.216l4.69-4.69c1.607-1.608 3.745-2.493 6.02-2.493 2.274 0 4.412.885 6.021 2.493 1.607 1.608 2.493 3.746 2.493 6.02s-.886 4.412-2.494 6.02c-24.707 24.707-38.314 57.557-38.314 92.499v176.199c0 .597.077 1.176.209 1.733-6.652 6.826-12.458 14.48-17.236 22.798zm240.297 239.566c-11.053 0-21.338 3.748-29.238 10.074-.734-5.91-1.923-11.681-3.533-17.276 9.894-5.892 21.156-8.999 32.771-8.999 11.647 0 22.854 3.089 32.725 8.966-1.6 5.619-2.773 11.39-3.494 17.275-7.865-6.291-18.12-10.04-29.231-10.04zm223.269-54.789v-178.145c0-34.941-13.607-67.791-38.315-92.499-1.608-1.608-2.493-3.746-2.493-6.02s.886-4.412 2.494-6.021c1.608-1.608 3.745-2.493 6.02-2.493 2.274 0 4.412.885 6.019 2.493l4.69 4.69c24.899 24.899 38.612 58.004 38.612 93.216v207.362c-4.727-8.229-10.462-15.81-17.027-22.583z"/><path d="m113.465 308.072c-44.135 0-80.041 35.906-80.041 80.041 0 44.134 35.906 80.041 80.041 80.041s80.041-35.906 80.041-80.041c0-44.134-35.906-80.041-80.041-80.041zm0 145.082c-35.863 0-65.041-29.177-65.041-65.041s29.178-65.041 65.041-65.041 65.041 29.177 65.041 65.041-29.178 65.041-65.041 65.041z"/><path d="m397.128 468.154c44.135 0 80.041-35.906 80.041-80.041s-35.906-80.041-80.041-80.041c-44.134 0-80.04 35.906-80.04 80.041s35.906 80.041 80.04 80.041zm0-145.082c35.863 0 65.041 29.177 65.041 65.041 0 35.863-29.178 65.041-65.041 65.041s-65.04-29.177-65.04-65.041c0-35.863 29.177-65.041 65.04-65.041z"/><path d="m110.371 373.989c2.929-2.929 2.929-7.678-.001-10.606-2.928-2.93-7.677-2.929-10.606 0l-12.029 12.03c-2.929 2.929-2.929 7.678.001 10.606 1.464 1.465 3.384 2.197 5.303 2.197s3.839-.732 5.304-2.197z"/><path d="m128.588 370.398-31.839 31.839c-2.929 2.929-2.929 7.678 0 10.606 1.465 1.464 3.385 2.197 5.304 2.197s3.839-.732 5.304-2.197l31.839-31.839c2.929-2.929 2.929-7.678 0-10.607-2.93-2.928-7.678-2.928-10.608.001z"/><path d="m376.701 388.216c1.919 0 3.839-.732 5.303-2.197l12.03-12.03c2.93-2.929 2.93-7.677.001-10.606-2.93-2.929-7.679-2.929-10.606 0l-12.03 12.03c-2.93 2.929-2.93 7.677-.001 10.606 1.464 1.465 3.383 2.197 5.303 2.197z"/><path d="m380.412 412.843c1.465 1.465 3.384 2.197 5.304 2.197 1.919 0 3.839-.732 5.304-2.197l31.84-31.839c2.929-2.929 2.929-7.678 0-10.607s-7.677-2.93-10.608 0l-31.84 31.839c-2.929 2.93-2.929 7.679 0 10.607z"/></g></svg>