<?xml version="1.0" encoding="iso-8859-1"?>
<!-- Generator: Adobe Illustrator 19.0.0, SVG Export Plug-In . SVG Version: 6.00 Build 0)  -->
<svg version="1.1" id="Capa_1" xmlns="http://www.w3.org/2000/svg" xmlns:xlink="http://www.w3.org/1999/xlink" x="0px" y="0px"
	 viewBox="0 0 512 512" style="enable-background:new 0 0 512 512;" xml:space="preserve">
<g>
	<g>
		<path d="M149.333,266.668h-64C38.272,266.668,0,304.94,0,352.001s38.272,85.333,85.333,85.333h64
			c47.061,0,85.333-38.272,85.333-85.333S196.395,266.668,149.333,266.668z M149.333,416.001h-64c-35.285,0-64-28.715-64-64
			s28.715-64,64-64h64c35.285,0,64,28.715,64,64S184.619,416.001,149.333,416.001z"/>
	</g>
</g>
<g>
	<g>
		<path d="M426.667,266.668h-64c-47.061,0-85.333,38.272-85.333,85.333s38.272,85.333,85.333,85.333h64
			c47.061,0,85.333-38.272,85.333-85.333S473.728,266.668,426.667,266.668z M426.667,416.001h-64c-35.285,0-64-28.715-64-64
			s28.715-64,64-64h64c35.285,0,64,28.715,64,64S461.952,416.001,426.667,416.001z"/>
	</g>
</g>
<g>
	<g>
		<path d="M294.443,343.468c-22.293-16.747-54.549-16.747-76.843,0c-4.715,3.541-5.653,10.219-2.112,14.933
			c3.541,4.757,10.261,5.675,14.933,2.112c14.827-11.157,36.331-11.157,51.157,0c1.92,1.472,4.181,2.155,6.421,2.155
			c3.221,0,6.443-1.451,8.555-4.267C300.096,353.687,299.157,347.009,294.443,343.468z"/>
	</g>
</g>
<g>
	<g>
		<path d="M150.933,81.879c-10.581-7.04-23.637-9.067-35.819-5.461c-12.224,3.584-22.144,12.331-27.435,24.533L5.547,321.665
			c-2.048,5.525,0.747,11.669,6.272,13.739c1.237,0.448,2.496,0.661,3.733,0.661c4.331,0,8.384-2.645,9.984-6.933l81.899-220.203
			c2.56-5.845,7.552-10.24,13.675-12.053c6.08-1.771,12.651-0.811,17.984,2.752c4.864,3.243,11.499,1.963,14.805-2.965
			C157.163,91.777,155.819,85.143,150.933,81.879z"/>
	</g>
</g>
<g>
	<g>
		<path d="M506.389,321.687l-82.283-221.248c-5.077-11.691-14.997-20.437-27.2-24.021c-12.203-3.584-25.259-1.579-35.819,5.461
			c-4.907,3.264-6.229,9.899-2.965,14.784c3.285,4.907,9.899,6.187,14.784,2.965c5.333-3.563,11.883-4.523,17.984-2.752
			c6.123,1.813,11.115,6.208,13.44,11.52L486.4,329.111c1.6,4.309,5.675,6.955,10.005,6.955c1.216,0,2.496-0.213,3.691-0.661
			C505.621,333.335,508.437,327.212,506.389,321.687z"/>
	</g>
</g>
<g>
</g>
<g>
</g>
<g>
</g>
<g>
</g>
<g>
</g>
<g>
</g>
<g>
</g>
<g>
</g>
<g>
</g>
<g>
</g>
<g>
</g>
<g>
</g>
<g>
</g>
<g>
</g>
<g>
</g>
</svg>
