<?xml version="1.0" standalone="no"?>
<!DOCTYPE svg PUBLIC "-//W3C//DTD SVG 20010904//EN"
 "http://www.w3.org/TR/2001/REC-SVG-20010904/DTD/svg10.dtd">
<svg version="1.0" xmlns="http://www.w3.org/2000/svg"
 width="300.000000pt" height="232.000000pt" viewBox="0 0 300.000000 232.000000"
 preserveAspectRatio="xMidYMid meet">

<g transform="translate(0.000000,232.000000) scale(0.100000,-0.100000)"
fill="#ff4d4d" stroke="none">
<path d="M2207 2293 c-19 -68 -18 -73 7 -73 17 0 27 8 34 28 5 15 13 35 17 45
6 14 2 17 -23 17 -21 0 -32 -6 -35 -17z"/>
<path d="M2162 2174 c-22 -15 -22 -16 -22 -329 0 -313 0 -314 22 -329 31 -22
84 -20 108 4 19 19 20 33 20 325 0 292 -1 306 -20 325 -24 24 -77 26 -108 4z
m68 -330 c0 -276 -1 -295 -17 -292 -17 3 -18 26 -21 287 -2 277 2 322 29 305
5 -3 9 -138 9 -300z"/>
<path d="M2660 2170 c-19 -19 -20 -33 -20 -325 0 -292 1 -306 20 -325 12 -12
33 -20 55 -20 22 0 43 8 55 20 18 18 20 33 20 156 l0 135 -27 -3 -28 -3 -3
-127 c-2 -105 -5 -128 -17 -128 -13 0 -15 40 -13 298 2 189 7 297 13 297 6 0
11 -48 13 -117 l3 -118 29 0 30 0 0 120 c0 138 -10 160 -75 160 -22 0 -43 -8
-55 -20z"/>
<path d="M2860 2170 c-18 -18 -20 -33 -20 -135 l0 -115 30 0 30 0 0 115 c0
108 1 115 20 115 19 0 20 -7 20 -121 l0 -121 -50 -48 -50 -48 0 -134 c0 -137
5 -158 41 -171 9 -3 26 1 38 9 12 9 21 11 21 5 0 -6 11 -11 25 -11 l25 0 0
323 c0 301 -1 325 -18 340 -26 24 -87 22 -112 -3z m80 -469 c0 -118 -3 -150
-14 -154 -8 -3 -17 -3 -20 0 -3 4 -6 68 -6 143 0 130 6 160 32 160 4 0 8 -67
8 -149z"/>
<path d="M2330 2155 c0 -20 5 -25 25 -25 l25 0 0 -310 0 -310 30 0 30 0 0 310
0 310 25 0 c20 0 25 5 25 25 0 25 -1 25 -80 25 -79 0 -80 0 -80 -25z"/>
<path d="M2530 1845 l0 -335 25 0 25 0 0 335 0 335 -25 0 -25 0 0 -335z"/>
<path d="M459 1883 c-67 -5 -39 49 -214 -418 -67 -181 -151 -402 -185 -489
l-63 -160 7 -115 c7 -138 15 -152 107 -199 86 -43 180 -62 322 -62 189 0 335
40 402 110 28 29 30 37 33 125 l4 94 39 6 c72 12 77 7 81 -105 4 -117 16 -141
99 -182 94 -47 179 -63 334 -62 194 0 332 39 395 111 l30 34 0 139 0 140 -59
147 c-32 82 -116 302 -185 490 -70 187 -133 349 -140 359 -13 18 -83 32 -163
33 -42 1 -43 0 -43 -32 0 -33 24 -67 48 -67 6 0 33 -5 61 -11 58 -12 70 -29
128 -169 49 -117 244 -653 239 -657 -2 -2 -37 5 -77 16 -41 11 -123 22 -184
26 -182 10 -332 -22 -430 -93 -40 -28 -62 -37 -106 -40 -53 -4 -57 -2 -104 38
-93 80 -198 110 -393 110 -126 0 -248 -17 -294 -42 -13 -6 -18 -5 -18 4 0 25
234 656 271 729 l38 76 63 13 c89 17 98 24 98 70 l0 40 -42 -2 c-24 -1 -68 -3
-99 -5z m152 -947 c86 -19 161 -51 191 -83 21 -23 23 -33 23 -140 l0 -115 -37
-33 c-56 -52 -146 -76 -313 -82 -122 -5 -151 -3 -224 16 -102 25 -164 60 -181
101 -19 45 -9 209 14 244 21 33 102 72 188 91 83 18 256 18 339 1z m1009 -22
c154 -36 181 -69 188 -227 4 -96 4 -99 -23 -127 -79 -82 -306 -120 -507 -85
-99 17 -168 44 -203 79 -24 24 -25 31 -25 144 0 116 0 119 28 144 37 35 61 46
145 68 93 24 302 27 397 4z"/>
<path d="M2687 1422 c-14 -15 -17 -41 -17 -135 l0 -117 25 0 25 0 0 115 c0
108 1 115 20 115 19 0 20 -7 20 -126 0 -123 -1 -126 -26 -147 -68 -57 -64 -45
-64 -200 0 -98 4 -147 12 -155 16 -16 68 -16 68 0 0 9 3 9 12 0 7 -7 22 -12
35 -12 l23 0 0 320 c0 307 -1 321 -20 340 -26 26 -90 27 -113 2z m73 -472 c0
-143 -1 -150 -20 -150 -19 0 -20 7 -20 140 0 122 2 140 18 149 9 6 18 11 20
11 1 0 2 -67 2 -150z"/>
<path d="M2141 1388 c0 -24 10 -173 22 -333 l22 -290 41 -3 42 -3 6 68 c3 37
13 167 21 288 8 121 17 241 20 268 6 47 6 47 -25 47 -26 0 -30 -4 -31 -27 -1
-95 -27 -514 -31 -518 -3 -3 -11 119 -18 270 l-13 275 -29 0 c-26 0 -28 -2
-27 -42z"/>
<path d="M2350 1095 l0 -335 30 0 30 0 0 335 0 335 -30 0 -30 0 0 -335z"/>
<path d="M2455 1393 c2 -21 7 -74 9 -118 11 -165 27 -391 31 -425 2 -19 4 -47
5 -62 0 -26 3 -28 43 -28 l43 0 22 318 c13 174 22 325 22 335 0 12 -8 17 -28
17 -16 0 -29 -5 -29 -12 -1 -59 -16 -374 -18 -387 -2 -9 -4 -47 -4 -85 -2
-122 -10 -66 -21 139 -5 110 -13 233 -16 273 -6 72 -6 72 -35 72 -28 0 -29 -2
-24 -37z"/>
<path d="M2470 689 c-13 -6 -28 -15 -32 -22 -4 -7 -8 -65 -8 -129 l0 -118 25
0 25 0 0 115 c0 95 3 117 15 122 9 3 18 3 21 0 3 -3 5 -61 5 -129 l0 -123 -45
-40 -46 -40 0 -138 c0 -76 5 -147 10 -158 12 -22 49 -25 69 -6 11 9 14 9 18 0
3 -7 16 -13 29 -13 l24 0 0 323 c0 177 -4 327 -8 334 -7 11 -56 34 -70 32 -4
0 -18 -5 -32 -10z m51 -484 c0 -81 -2 -150 -5 -152 -3 -3 -12 -3 -21 0 -23 10
-22 262 2 289 9 10 18 16 20 14 2 -2 4 -70 4 -151z"/>
<path d="M2790 691 c-58 -16 -62 -113 -14 -277 57 -190 65 -229 62 -294 -2
-50 -6 -65 -18 -65 -12 0 -16 17 -18 83 l-3 82 -30 0 -31 0 4 -90 c4 -106 16
-125 79 -125 32 0 46 6 61 25 33 40 20 171 -32 335 -31 97 -41 149 -43 205 -2
61 1 75 13 75 12 0 16 -17 18 -77 l3 -78 29 0 30 0 0 79 c0 61 -4 83 -17 99
-21 23 -58 32 -93 23z"/>
<path d="M2140 350 l0 -340 25 0 25 0 2 318 c3 274 5 317 18 317 13 0 15 -43
18 -317 l2 -318 25 0 25 0 2 318 c3 274 5 317 18 317 13 0 16 -44 20 -315 l5
-315 25 0 25 0 3 318 c1 208 -1 325 -8 337 -11 21 -49 27 -66 10 -6 -6 -21 -6
-42 2 -26 10 -37 10 -52 0 -12 -7 -20 -8 -20 -2 0 5 -11 10 -25 10 l-25 0 0
-340z"/>
<path d="M2635 677 c-3 -7 -4 -158 -3 -337 l3 -325 28 -3 27 -3 0 340 0 341
-25 0 c-14 0 -28 -6 -30 -13z"/>
</g>
</svg>
